<?xml version="1.0" encoding="utf-8"?>
<!-- Generator: Adobe Illustrator 25.2.3, SVG Export Plug-In . SVG Version: 6.00 Build 0)  -->
<svg version="1.1" id="Layer_1" xmlns="http://www.w3.org/2000/svg" xmlns:xlink="http://www.w3.org/1999/xlink" x="0px" y="0px"
	 viewBox="0 0 150 150" style="enable-background:new 0 0 150 150;" xml:space="preserve">
<style type="text/css">
	.st0{fill:#FFFFFF;}
</style>
<g>
	<path class="st0" d="M32.5,111.2l3.6,12.5c0,0,17.3-5.1,30-19.2L59.5,98C53.2,103.4,44,108.9,32.5,111.2z"/>
	<path class="st0" d="M83.8,104.5c12.8,14.1,30,19.2,30,19.2l3.6-12.5c-11.5-2.2-20.6-7.7-27-13.2L83.8,104.5z"/>
	<path class="st0" d="M80.1,44.1l0.2-17.7H75h-5.2l0.2,17.7c0,0-15.8,24.7-44.5,31.1l3.6,12.5c0,0,24.9-7,41-28l0.3,29.7H75h4.6
		l0.3-29.7c16.1,21.1,41,28,41,28l3.6-12.5C95.9,68.8,80.1,44.1,80.1,44.1z"/>
</g>
</svg>
